<svg width="22" height="20" viewBox="0 0 22 20" fill="none" xmlns="http://www.w3.org/2000/svg">
<path d="M10.2502 14.5052C10.2502 14.0852 10.5862 13.7383 11.0002 13.7383C11.4142 13.7383 11.7502 14.0741 11.7502 14.4941V14.5052C11.7502 14.9252 11.4142 15.2661 11.0002 15.2661C10.5862 15.2661 10.2502 14.9252 10.2502 14.5052Z" fill="#11142D"/>
<path d="M3.7956 18.7138H18.2776C19.4246 18.6529 20.3066 17.6617 20.2476 16.4981C20.2346 16.2628 20.1846 16.0304 20.0966 15.8133L12.8196 2.89273C12.2636 1.87316 10.9986 1.50389 9.9936 2.06896C9.6516 2.25968 9.3696 2.54577 9.1806 2.89273L1.9036 15.8133C1.4716 16.8928 1.9836 18.1223 3.0466 18.5616C3.2626 18.6499 3.4906 18.7006 3.7226 18.7138" stroke="#11142D" stroke-width="1.7" stroke-linecap="round" stroke-linejoin="round"/>
<path d="M10.9897 11.5902V8.44531" stroke="#3F8CFF" stroke-width="1.5" stroke-linecap="round" stroke-linejoin="round"/>
</svg>
