<svg width="22" height="22" viewBox="0 0 22 22" fill="none" xmlns="http://www.w3.org/2000/svg">
<path fill-rule="evenodd" clip-rule="evenodd" d="M15.686 1H6.31397C3.04692 1 1 3.3124 1 6.58487V15.4151C1 18.6876 3.03825 21 6.31397 21H15.6849C18.9617 21 21 18.6876 21 15.4151V6.58487C21 3.3124 18.9617 1 15.686 1Z" stroke="#11142D" stroke-width="1.5" stroke-linecap="round" stroke-linejoin="round"/>
<path fill-rule="evenodd" clip-rule="evenodd" d="M9.61773 7.53975C9.61773 8.64394 8.72159 9.54008 7.61741 9.54008C6.5143 9.54008 5.61816 8.64394 5.61816 7.53975C5.61816 6.43557 6.5143 5.53943 7.61741 5.53943C8.72159 5.53943 9.61773 6.43557 9.61773 7.53975Z" stroke="#3F8CFF" stroke-width="1.5" stroke-linecap="round" stroke-linejoin="round"/>
<path d="M20.9994 14.22C19.9223 13.2827 18.985 12.1547 17.7497 11.4102C16.5122 10.6658 15.1826 11.1253 14.3244 12.2359C13.4955 13.3098 12.9775 14.7542 11.726 15.4315C10.184 16.2669 9.27811 14.92 7.99188 14.3804C6.55611 13.779 5.46601 14.8604 4.6273 15.8996C3.78751 16.9399 2.93688 17.9693 2.08301 18.9987" stroke="#11142D" stroke-width="1.5" stroke-linecap="round" stroke-linejoin="round"/>
</svg>
