<svg width="24" height="20" viewBox="0 0 24 20" fill="none" xmlns="http://www.w3.org/2000/svg">
<path fill-rule="evenodd" clip-rule="evenodd" d="M10.2392 1.00977H4.695C2.97917 1.00977 1.5 2.4006 1.5 4.11727V13.0448C1.5 14.8581 2.8825 16.3039 4.695 16.3039H11.3525C13.0692 16.3039 14.46 14.7623 14.46 13.0448V5.40643L10.2392 1.00977Z" stroke="#6F6F6F" stroke-width="1.2" stroke-linecap="round" stroke-linejoin="round"/>
<path d="M10.0205 1V3.42417C10.0205 4.6075 10.978 5.5675 12.1605 5.57C13.258 5.5725 14.3805 5.57333 14.4563 5.56833" stroke="#6F6F6F" stroke-width="1.2" stroke-linecap="round" stroke-linejoin="round"/>
<path d="M9.12543 9.58342H4.62793" stroke="#6F6F6F" stroke-width="1.2" stroke-linecap="round" stroke-linejoin="round"/>
<path d="M7.4246 5.45646H4.62793" stroke="#6F6F6F" stroke-width="1.2" stroke-linecap="round" stroke-linejoin="round"/>
<path d="M12.8346 14.3976L10.9699 12.7053C10.2709 12.0709 9.20442 12.0712 8.50579 12.706C7.70547 13.4332 7.70547 14.6916 8.50579 15.4188L12.1602 18.7393C12.1602 18.7393 12.1603 18.7393 12.1603 18.7393C12.542 19.0862 13.1245 19.0861 13.5063 18.74L13.507 18.7393L14.744 17.6153L14.7441 17.6153L21.4945 11.481C22.2946 10.7539 22.2946 9.49566 21.4944 8.76857C20.7955 8.13358 19.7286 8.13358 19.0297 8.76857L12.8346 14.3976ZM12.1609 15.0097L12.82 15.7348L12.0943 15.0762C12.1152 15.0532 12.1374 15.0311 12.1609 15.0097Z" fill="#3F8CFF" stroke="white" stroke-width="2"/>
</svg>
