<svg width="18" height="22" viewBox="0 0 18 22" fill="none" xmlns="http://www.w3.org/2000/svg">
<path fill-rule="evenodd" clip-rule="evenodd" d="M8.63398 17.0124L2.92142 20.142C2.46531 20.379 1.9034 20.2112 1.65196 19.7629V19.7629C1.57921 19.624 1.53996 19.4701 1.53735 19.3133V5.44624C1.53735 2.80153 3.34457 1.74365 5.9452 1.74365H12.0545C14.5758 1.74365 16.4623 2.73101 16.4623 5.26993V19.3133C16.4623 19.5635 16.3629 19.8034 16.186 19.9803C16.0091 20.1572 15.7692 20.2566 15.519 20.2566C15.3595 20.2541 15.2026 20.2148 15.0606 20.142L9.31279 17.0124C9.10098 16.898 8.84578 16.898 8.63398 17.0124Z" stroke="#898F96" stroke-width="1.6" stroke-linecap="round" stroke-linejoin="round"/>
<path d="M5.46069 8.04674H12.4868" stroke="#898F96" stroke-width="1.6" stroke-linecap="round" stroke-linejoin="round"/>
</svg>
