<svg width="20" height="18" viewBox="0 0 20 18" fill="none" xmlns="http://www.w3.org/2000/svg">
<path fill-rule="evenodd" clip-rule="evenodd" d="M1.82284 1.75679C2.80026 0.797132 4.12323 0.271932 5.49273 0.29989L5.49838 0.299952C6.62132 0.301726 7.72009 0.626223 8.66383 1.23479C9.07632 1.50256 9.44954 1.82644 9.77274 2.19711C9.89192 2.3338 10.1042 2.3343 10.224 2.19817C10.5495 1.82846 10.9233 1.50431 11.3353 1.23449C12.2785 0.625995 13.3768 0.30164 14.4993 0.300006L14.505 0.29989C15.8745 0.271932 17.1974 0.797132 18.1749 1.75679C19.152 2.71618 19.7014 4.02883 19.6989 5.39821C19.6889 6.41384 19.4619 7.4156 19.0329 8.33626L19.0314 8.3395C17.7075 11.2718 14.6973 13.7376 11.9663 15.9666L11.9652 15.9675L11.9574 15.9737L11.9554 15.9754C11.5106 16.3377 11.0785 16.6904 10.6674 17.0356C10.284 17.3576 9.7219 17.3584 9.33824 17.0366C8.97634 16.7331 8.59806 16.4226 8.20984 16.104L8.04422 15.9681L7.96523 15.9032C7.96264 15.9011 7.9594 15.9 7.95605 15.9C7.95272 15.9 7.94949 15.8988 7.94691 15.8967C5.23867 13.6819 2.27641 11.2362 0.966294 8.33449L0.964783 8.33125C0.536523 7.41209 0.309483 6.41207 0.298837 5.3981C0.296354 4.02876 0.845702 2.71616 1.82284 1.75679ZM8.71123 3.10958C7.89052 2.20327 6.72199 1.69044 5.49944 1.69994C4.49003 1.68814 3.51661 2.07481 2.79043 2.77616L2.78863 2.77793C2.08506 3.46902 1.69184 4.41589 1.69877 5.40206L1.6988 5.4044C1.71084 6.21726 1.89487 7.01841 2.23899 7.75497L2.24188 7.76082C2.89835 9.08981 3.7839 10.2927 4.8579 11.3143C5.85932 12.3244 7.00789 13.2993 7.99405 14.1135C8.2673 14.3387 8.54618 14.5664 8.82371 14.793L8.99912 14.9363C9.26598 15.1542 9.54113 15.3795 9.80705 15.6006L9.91297 15.6887C9.96804 15.7345 10.0485 15.7324 10.1011 15.6838L10.1386 15.6492C10.1409 15.6471 10.1439 15.646 10.147 15.646C10.1499 15.646 10.1527 15.6449 10.1549 15.6431L10.2206 15.5883C10.224 15.5855 10.2283 15.584 10.2327 15.584C10.2374 15.584 10.2418 15.5823 10.2453 15.5792L10.3298 15.5041L10.9893 14.9627L11.1629 14.8201C11.4438 14.5911 11.7224 14.3637 11.9958 14.1383C12.9817 13.3244 14.1313 12.3505 15.133 11.3351C16.2071 10.314 17.0926 9.11155 17.7489 7.78282L17.7512 7.77791C18.1016 7.03486 18.2883 6.22524 18.2989 5.4038L18.2989 5.40133C18.3034 4.41821 17.9104 3.475 17.2091 2.78596L17.208 2.78483C16.4831 2.08024 15.5094 1.69037 14.4986 1.69994C13.2759 1.69034 12.1072 2.20314 11.2864 3.10954L10.3765 4.15807C10.1771 4.38779 9.82057 4.38779 9.62122 4.15806L8.71548 3.11428L8.71123 3.10958Z" fill="#898F96" stroke="#898F96" stroke-width="0.4"/>
</svg>
