<svg width="24" height="24" viewBox="0 0 24 24" fill="none" xmlns="http://www.w3.org/2000/svg">
<path fill-rule="evenodd" clip-rule="evenodd" d="M3.82284 4.75679C4.80026 3.79713 6.12323 3.27193 7.49273 3.29989L7.49838 3.29995C8.62132 3.30173 9.72009 3.62622 10.6638 4.23479C11.0763 4.50256 11.4495 4.82644 11.7727 5.19711C11.8919 5.3338 12.1042 5.3343 12.224 5.19817C12.5495 4.82846 12.9233 4.50431 13.3353 4.23449C14.2785 3.62599 15.3768 3.30164 16.4993 3.30001L16.505 3.29989C17.8745 3.27193 19.1974 3.79713 20.1749 4.75679C21.152 5.71618 21.7014 7.02883 21.6989 8.39821C21.6889 9.41384 21.4619 10.4156 21.0329 11.3363L21.0314 11.3395C19.7075 14.2718 16.6973 16.7376 13.9663 18.9666L13.9652 18.9675L13.9574 18.9737L13.9554 18.9754C13.5106 19.3377 13.0785 19.6904 12.6674 20.0356C12.284 20.3576 11.7219 20.3584 11.3382 20.0366C10.9763 19.7331 10.5981 19.4226 10.2098 19.104L10.0442 18.9681L9.96523 18.9032C9.96264 18.9011 9.9594 18.9 9.95605 18.9C9.95272 18.9 9.94949 18.8988 9.94691 18.8967C7.23867 16.6819 4.27641 14.2362 2.96629 11.3345L2.96478 11.3313C2.53652 10.4121 2.30948 9.41207 2.29884 8.3981C2.29635 7.02876 2.8457 5.71616 3.82284 4.75679ZM10.7112 6.10958C9.89052 5.20327 8.72199 4.69044 7.49944 4.69994C6.49003 4.68814 5.51661 5.07481 4.79043 5.77616L4.78863 5.77793C4.08506 6.46902 3.69184 7.41589 3.69877 8.40206L3.6988 8.4044C3.71084 9.21726 3.89487 10.0184 4.23899 10.755L4.24188 10.7608C4.89835 12.0898 5.7839 13.2927 6.8579 14.3143C7.85932 15.3244 9.00789 16.2993 9.99405 17.1135C10.2673 17.3387 10.5462 17.5664 10.8237 17.793L10.9991 17.9363C11.266 18.1542 11.5411 18.3795 11.8071 18.6006L11.913 18.6887C11.968 18.7345 12.0485 18.7324 12.1011 18.6838L12.1386 18.6492C12.1409 18.6471 12.1439 18.646 12.147 18.646C12.1499 18.646 12.1527 18.6449 12.1549 18.6431L12.2206 18.5883C12.224 18.5855 12.2283 18.584 12.2327 18.584C12.2374 18.584 12.2418 18.5823 12.2453 18.5792L12.3298 18.5041L12.9893 17.9627L13.1629 17.8201C13.4438 17.5911 13.7224 17.3637 13.9958 17.1383C14.9817 16.3244 16.1313 15.3505 17.133 14.3351C18.2071 13.314 19.0926 12.1115 19.7489 10.7828L19.7512 10.7779C20.1016 10.0349 20.2883 9.22524 20.2989 8.4038L20.2989 8.40133C20.3034 7.41821 19.9104 6.475 19.2091 5.78596L19.208 5.78483C18.4831 5.08024 17.5094 4.69037 16.4986 4.69994C15.2759 4.69034 14.1072 5.20314 13.2864 6.10954L12.3765 7.15807C12.1771 7.38779 11.8206 7.38779 11.6212 7.15806L10.7155 6.11428L10.7112 6.10958Z" fill="#434343" stroke="#434343" stroke-width="0.3"/>
</svg>
