<svg width="176" height="49" viewBox="0 0 176 49" fill="none" xmlns="http://www.w3.org/2000/svg">
<g clip-path="url(#clip0_440:13049)">
<path fill-rule="evenodd" clip-rule="evenodd" d="M33.286 20.7484V25.8875H16.3908C14.8984 25.8814 13.467 25.2933 12.3998 24.2476C11.3327 23.202 10.7135 21.7811 10.6735 20.2858V16.6627C10.6735 15.9114 10.8216 15.1675 11.1092 14.4737C11.3968 13.78 11.8184 13.15 12.3496 12.6198C12.8809 12.0898 13.5113 11.6702 14.2048 11.385C14.8983 11.0999 15.6412 10.9548 16.3908 10.9582H33.3116C33.9915 10.9582 34.6437 11.2289 35.1245 11.7108C35.6052 12.1927 35.8753 12.8463 35.8753 13.5277C35.8753 14.2092 35.6052 14.8629 35.1245 15.3448C34.6437 15.8267 33.9915 16.0974 33.3116 16.0974H15.0063V20.7484H33.286ZM16.3908 0.499939H34.1833C37.5954 0.704987 40.8064 2.18672 43.1804 4.65176C45.5544 7.11679 46.9183 10.3854 47.0021 13.8105C46.944 16.4514 46.1335 19.0207 44.6662 21.2152C43.1991 23.4097 41.1362 25.1379 38.7211 26.1959L33.286 20.7484C34.2301 20.7724 35.1696 20.6067 36.0489 20.2609C36.9283 19.9153 37.7297 19.3968 38.4059 18.7357C39.0821 18.0748 39.6193 17.2848 39.9862 16.4124C40.3529 15.5401 40.5417 14.6029 40.5415 13.6563C40.5077 11.7547 39.7268 9.94321 38.3683 8.61531C37.0099 7.28742 35.1835 6.55034 33.286 6.56418H16.3908C13.7185 6.56418 11.1558 7.62812 9.26621 9.52196C7.37667 11.4158 6.31514 13.9843 6.31514 16.6627V20.2858C6.31514 22.9641 7.37667 25.5327 9.26621 27.4265C11.1558 29.3203 13.7185 30.3843 16.3908 30.3843H33.3116V36.4743H16.3908C12.1115 36.4674 8.00981 34.7589 4.98632 31.7237C1.96282 28.6885 0.264644 24.5748 0.264648 20.2858V16.6627C0.271429 12.3781 1.9726 8.27103 4.99536 5.2414C8.01812 2.21178 12.1159 0.506734 16.3908 0.499939Z" fill="white"/>
<path fill-rule="evenodd" clip-rule="evenodd" d="M40.1314 35.1637H46.4126C46.4126 32.9539 45.3615 31.7976 43.3618 31.7976C41.362 31.7976 40.3109 32.7484 40.0032 35.1637H40.1314ZM48.2585 42.6413C46.8763 43.2112 45.3946 43.4994 43.9001 43.4892C39.9519 43.4892 37.6445 41.9731 37.6445 36.7055C37.6445 32.1831 39.7468 29.8189 43.5155 29.8189C44.269 29.7646 45.0252 29.8776 45.7299 30.15C46.4346 30.4225 47.0706 30.8477 47.5924 31.3951C48.114 31.9427 48.5086 32.5989 48.748 33.3171C48.9872 34.0351 49.0653 34.7974 48.9764 35.5492C48.9606 36.0405 48.9093 36.5301 48.8226 37.0139H40.0802C40.0802 40.6884 41.6953 41.485 44.0795 41.485C45.356 41.4522 46.6191 41.2181 47.8227 40.7911L48.2585 42.6413Z" fill="white"/>
<path fill-rule="evenodd" clip-rule="evenodd" d="M59.2822 43.2323L55.8723 38.3243L52.5138 43.2323H49.5654L54.5648 36.4999L49.8475 30.076H52.7702L56.0262 34.804L59.1796 30.076H62.0254L57.2824 36.4999L62.2305 43.2323H59.2822Z" fill="white"/>
<path fill-rule="evenodd" clip-rule="evenodd" d="M66.2297 32.3371V41.1766C67.1744 41.4293 68.1492 41.5504 69.1268 41.5363C71.947 41.5363 72.6905 39.3779 72.6905 36.3971C72.6905 34.0331 72.2802 31.7205 69.3831 31.7205C68.3109 31.7143 67.2449 31.888 66.2297 32.2344V32.3371ZM66.2297 48.4999H63.666V30.076H66.2297V30.9753C67.322 30.1791 68.6487 29.772 69.9985 29.8189C73.8185 29.8189 75.126 32.9796 75.126 36.3971C75.126 40.3543 73.5109 43.4892 69.3575 43.4892C68.2399 43.4951 67.1384 43.2213 66.1529 42.6927L66.2297 48.4999Z" fill="white"/>
<path fill-rule="evenodd" clip-rule="evenodd" d="M83.7149 32.0289C82.2345 31.9642 80.7555 32.1822 79.3565 32.6712V43.258H76.9209V30.076H79.3308V31.0781H79.4846C80.6996 30.1854 82.1849 29.7406 83.6892 29.8189L83.7149 32.0289Z" fill="white"/>
<path fill-rule="evenodd" clip-rule="evenodd" d="M86.9196 35.1637H93.329C93.329 32.9539 92.2779 31.7976 90.2781 31.7976C88.2784 31.7976 87.2274 32.7484 86.9196 35.1637ZM95.1238 42.6413C93.7413 43.2104 92.2597 43.4987 90.7653 43.4892C86.8172 43.4892 84.5098 41.9731 84.5098 36.7055C84.5098 32.183 86.6121 29.8189 90.3807 29.8189C91.141 29.7346 91.9104 29.8271 92.6292 30.0892C93.348 30.3514 93.9968 30.7762 94.5251 31.3304C95.0534 31.8848 95.447 32.554 95.6753 33.2856C95.9037 34.0172 95.9605 34.7918 95.8415 35.5492C95.8262 36.0406 95.7748 36.53 95.6877 37.0139H86.8684C86.8684 40.6884 88.4835 41.485 90.8679 41.485C92.1356 41.4499 93.39 41.2158 94.5853 40.7911L95.1238 42.6413Z" fill="white"/>
<path fill-rule="evenodd" clip-rule="evenodd" d="M98.1997 40.7398C99.4085 41.1872 100.681 41.4388 101.969 41.485C103.609 41.485 104.917 40.9453 104.917 39.6348C104.917 38.3243 103.43 37.7848 101.763 37.3736C99.6611 36.911 97.8151 35.9603 97.8151 33.5449C97.8151 31.1294 99.815 29.819 102.943 29.819C104.224 29.8825 105.491 30.1158 106.711 30.5128L106.25 32.5685C105.16 32.1061 103.997 31.845 102.814 31.7976C101.199 31.7976 100.251 32.3886 100.251 33.4164C100.251 34.4442 101.84 35.0867 103.25 35.4721C105.353 36.0631 107.301 36.7312 107.301 39.4292C107.301 42.1273 104.942 43.4892 101.84 43.4892C100.448 43.4452 99.068 43.2118 97.7383 42.7955L98.1997 40.7398Z" fill="white"/>
<path fill-rule="evenodd" clip-rule="evenodd" d="M109.609 40.7398C110.826 41.1904 112.107 41.442 113.404 41.485C115.019 41.485 116.352 40.9453 116.352 39.6348C116.352 38.3243 114.891 37.7848 113.199 37.3736C111.096 36.911 109.25 35.9603 109.25 33.5449C109.25 31.1294 111.25 29.819 114.378 29.819C115.659 29.8837 116.926 30.117 118.147 30.5128L117.685 32.5685C116.602 32.118 115.447 31.8656 114.275 31.8233C112.635 31.8233 111.712 32.4143 111.712 33.4421C111.712 34.47 113.276 35.1124 114.711 35.4978C116.814 36.0888 118.762 36.7568 118.762 39.4549C118.762 42.153 116.403 43.5149 113.301 43.5149C111.909 43.4708 110.529 43.2374 109.199 42.8212L109.609 40.7398Z" fill="white"/>
<path fill-rule="evenodd" clip-rule="evenodd" d="M123.325 32.3373V41.1766C124.156 41.4346 125.018 41.5815 125.889 41.6135C128.888 41.6135 129.658 39.4549 129.658 36.4743C129.658 34.1103 129.299 31.7976 126.145 31.7976C125.139 31.792 124.141 31.966 123.197 32.3116L123.325 32.3373ZM120.761 24.8083L123.325 24.5513V30.9239C124.433 30.1867 125.738 29.8017 127.068 29.8191C130.837 29.8191 132.196 32.9796 132.196 36.3972C132.196 40.3543 130.401 43.4892 126.042 43.4892C124.24 43.4035 122.46 43.0485 120.761 42.4357V24.8083Z" fill="white"/>
<path fill-rule="evenodd" clip-rule="evenodd" d="M142.143 37.9647H138.374C136.683 37.9647 136.375 38.8126 136.375 39.712C136.375 41.0739 137.041 41.5107 138.323 41.5107C139.611 41.4669 140.892 41.286 142.143 40.971V37.9647ZM142.143 36.3457V34.5471C142.143 32.6455 141.246 31.8233 139.143 31.8233C137.856 31.8269 136.58 32.0619 135.375 32.5171L135.016 30.6156C136.47 30.0529 138.021 29.7822 139.579 29.8191C142.579 29.8191 144.707 30.9754 144.707 34.1359V41.4078H146.399V42.8725C145.604 43.2784 144.727 43.498 143.835 43.5149C143.447 43.5637 143.055 43.4676 142.734 43.2448C142.412 43.0219 142.183 42.6882 142.092 42.3072C140.871 43.1009 139.445 43.5205 137.99 43.5149C137.469 43.5876 136.939 43.5442 136.437 43.3875C135.936 43.2309 135.475 42.9651 135.088 42.6089C134.701 42.2529 134.397 41.8155 134.198 41.3279C134 40.8405 133.911 40.3149 133.939 39.789C133.939 37.0396 135.631 35.986 138.503 35.986C139.717 35.986 140.927 36.1066 142.117 36.3457H142.143Z" fill="white"/>
<path fill-rule="evenodd" clip-rule="evenodd" d="M150.937 32.5942V43.2323H148.527V30.076H150.937V31.0781H151.091C152.314 30.2422 153.764 29.8026 155.244 29.8191C155.822 29.7501 156.408 29.8152 156.956 30.0094C157.505 30.2035 158.001 30.5215 158.408 30.9388C158.814 31.3561 159.12 31.8615 159.3 32.4159C159.48 32.9701 159.532 33.5587 159.449 34.1359V43.2323H157.039V34.8041C157.039 33.1081 156.577 31.7976 154.475 31.7976C153.247 31.8306 152.037 32.1011 150.911 32.5942H150.937Z" fill="white"/>
<path fill-rule="evenodd" clip-rule="evenodd" d="M165.141 35.2923H167.524L171.498 30.076H174.344L169.627 36.1145L175.139 43.2323H172.14L167.576 37.2708H165.141V43.2323H162.73V24.8083L165.141 24.5513V35.2923Z" fill="white"/>
</g>
<defs>
<clipPath id="clip0_440:13049">
<rect width="176" height="48" fill="white" transform="translate(0 0.499939)"/>
</clipPath>
</defs>
</svg>
