<svg width="88" height="19" viewBox="0 0 88 19" fill="none" xmlns="http://www.w3.org/2000/svg">
<path d="M5.77805 18H9.37465L12.69 6.58807H12.8264L16.1502 18H19.7468L24.7411 0.545454H20.7099L17.8207 12.6989H17.6673L14.4883 0.545454H11.0366L7.84908 12.6733H7.70419L4.81499 0.545454H0.783736L5.77805 18ZM31.2077 18.2557C34.4464 18.2557 36.6282 16.679 37.1396 14.25L33.7816 14.0284C33.4151 15.0256 32.4776 15.5455 31.2674 15.5455C29.4521 15.5455 28.3015 14.3438 28.3015 12.392V12.3835H37.2163V11.3864C37.2163 6.9375 34.5231 4.73864 31.0629 4.73864C27.2106 4.73864 24.7134 7.47443 24.7134 11.5142C24.7134 15.6648 27.1765 18.2557 31.2077 18.2557ZM28.3015 10.1335C28.3782 8.64205 29.5117 7.44886 31.1225 7.44886C32.6992 7.44886 33.7901 8.57386 33.7987 10.1335H28.3015Z" fill="#3F8CFF"/>
<path d="M49.1225 5.56534H52.6594C52.6083 2.45454 50.0515 0.306818 46.1651 0.306818C42.3384 0.306818 39.5344 2.42045 39.5515 5.59091C39.543 8.16477 41.3583 9.6392 44.3072 10.3466L46.2077 10.8239C48.1083 11.2841 49.1651 11.8295 49.1737 13.0057C49.1651 14.2841 47.9549 15.1534 46.0799 15.1534C44.1623 15.1534 42.7816 14.267 42.6623 12.5199H39.0913C39.185 16.2955 41.8867 18.2472 46.1225 18.2472C50.3839 18.2472 52.8896 16.2102 52.8981 13.0142C52.8896 10.108 50.6992 8.56534 47.6651 7.88352L46.0969 7.50852C44.5799 7.15909 43.31 6.59659 43.3356 5.34375C43.3356 4.21875 44.3327 3.39204 46.1396 3.39204C47.9038 3.39204 48.9862 4.19318 49.1225 5.56534ZM59.0451 18.2472C60.9798 18.2472 62.2326 17.4034 62.8718 16.1847H62.9741V18H66.4173V9.17045C66.4173 6.05114 63.7752 4.73864 60.8604 4.73864C57.7241 4.73864 55.6616 6.23864 55.1587 8.625L58.5167 8.89773C58.7638 8.02841 59.5394 7.3892 60.8434 7.3892C62.0792 7.3892 62.7866 8.01136 62.7866 9.08523V9.13636C62.7866 9.98011 61.8917 10.0909 59.6161 10.3125C57.0252 10.5511 54.6985 11.4205 54.6985 14.3438C54.6985 16.9347 56.5479 18.2472 59.0451 18.2472ZM60.0849 15.7415C58.9684 15.7415 58.1673 15.2216 58.1673 14.2244C58.1673 13.2017 59.011 12.6989 60.2894 12.5199C61.082 12.4091 62.3775 12.2216 62.8121 11.9318V13.321C62.8121 14.6932 61.6786 15.7415 60.0849 15.7415ZM72.8647 0.545454H69.234V18H72.8647V0.545454ZM81.739 18.2557C84.9776 18.2557 87.1594 16.679 87.6708 14.25L84.3129 14.0284C83.9464 15.0256 83.0089 15.5455 81.7987 15.5455C79.9833 15.5455 78.8327 14.3438 78.8327 12.392V12.3835H87.7475V11.3864C87.7475 6.9375 85.0543 4.73864 81.5941 4.73864C77.7418 4.73864 75.2447 7.47443 75.2447 11.5142C75.2447 15.6648 77.7077 18.2557 81.739 18.2557ZM78.8327 10.1335C78.9094 8.64205 80.043 7.44886 81.6538 7.44886C83.2305 7.44886 84.3214 8.57386 84.3299 10.1335H78.8327Z" fill="#434343"/>
</svg>
