<svg width="22" height="21" viewBox="0 0 22 21" fill="none" xmlns="http://www.w3.org/2000/svg">
<path fill-rule="evenodd" clip-rule="evenodd" d="M1.99033 3.29096C2.30665 2.75961 4.0495 0.826983 5.29322 0.885326C5.665 0.916582 5.99364 1.14475 6.26067 1.40938C6.87379 2.01678 8.62897 4.31405 8.72859 4.79747C8.97096 5.9831 7.57833 6.66655 8.00454 7.86155C9.09112 10.5589 10.9634 12.4582 13.6233 13.5594C14.8003 13.9918 15.474 12.579 16.6428 12.826C17.1183 12.927 19.3839 14.7075 19.9826 15.3295C20.2425 15.5994 20.4684 15.9338 20.4992 16.311C20.5454 17.6393 18.5222 19.4323 18.1278 19.6615C17.1974 20.3367 15.9834 20.3252 14.5035 19.6272C10.3739 17.8841 3.77426 11.3153 2.02422 6.96765C1.35461 5.47467 1.30839 4.23487 1.99033 3.29096Z" stroke="#434343" stroke-width="1.5" stroke-linecap="round" stroke-linejoin="round"/>
</svg>
