<svg width="24" height="24" viewBox="0 0 24 24" fill="none" xmlns="http://www.w3.org/2000/svg">
<path d="M6.5 21.9C6.5 22.4523 6.05228 22.9 5.5 22.9H5.3C4.74772 22.9 4.3 22.4523 4.3 21.9V20.7H2C1.44771 20.7 1 20.2523 1 19.7V19.5C1 18.9477 1.44772 18.5 2 18.5H4.3V17.3C4.3 16.7477 4.74772 16.3 5.3 16.3H5.5C6.05229 16.3 6.5 16.7477 6.5 17.3V21.9ZM23 19.7C23 20.2523 22.5523 20.7 22 20.7H9.7C9.14772 20.7 8.7 20.2523 8.7 19.7V19.5C8.7 18.9477 9.14772 18.5 9.7 18.5H22C22.5523 18.5 23 18.9477 23 19.5V19.7ZM17.5 14.3C17.5 14.8523 17.0523 15.3 16.5 15.3H16.3C15.7477 15.3 15.3 14.8523 15.3 14.3V13.1H2C1.44772 13.1 1 12.6523 1 12.1V11.9C1 11.3477 1.44772 10.9 2 10.9H15.3V9.7132C15.3 9.16092 15.7477 8.7132 16.3 8.7132H16.5C17.0523 8.7132 17.5 9.16092 17.5 9.7132V14.3ZM23 12.1C23 12.6523 22.5523 13.1 22 13.1H20.7C20.1477 13.1 19.7 12.6523 19.7 12.1V11.9C19.7 11.3477 20.1477 10.9 20.7 10.9H22C22.5523 10.9 23 11.3477 23 11.9V12.1ZM10.9 6.7C10.9 7.25229 10.4523 7.7 9.9 7.7H9.7C9.14772 7.7 8.7 7.25228 8.7 6.7V5.5H2C1.44772 5.5 1 5.05228 1 4.5V4.3C1 3.74772 1.44772 3.3 2 3.3H8.7V2.1C8.7 1.54772 9.14772 1.1 9.7 1.1H9.9C10.4523 1.1 10.9 1.54772 10.9 2.1V6.7ZM23 4.5C23 5.05228 22.5523 5.5 22 5.5H14.1C13.5477 5.5 13.1 5.05228 13.1 4.5V4.3C13.1 3.74772 13.5477 3.3 14.1 3.3H22C22.5523 3.3 23 3.74772 23 4.3V4.5Z" fill="white" stroke="#434343" stroke-width="0.3"/>
</svg>
