<svg width="20" height="20" viewBox="0 0 20 20" fill="none" xmlns="http://www.w3.org/2000/svg">
<path d="M9.5 15.3438L1.15625 13.8125L0.84375 17.125L3.03125 18.9688L14 19.3125L18.0938 18.0938L18.8438 16.1562L19.3438 13.5312L12.7812 15.1875L9.5 15.3438Z" fill="#3F8CFF"/>
<path fill-rule="evenodd" clip-rule="evenodd" d="M0.804108 13.477C0.804108 13.477 0.946108 15.215 0.979108 15.763C1.02311 16.498 1.30711 17.319 1.78111 17.889C2.45011 18.697 3.23811 18.982 4.29011 18.984C5.52711 18.986 14.5221 18.986 15.7591 18.984C16.8111 18.982 17.5991 18.697 18.2681 17.889C18.7421 17.319 19.0261 16.498 19.0711 15.763C19.1031 15.215 19.2451 13.477 19.2451 13.477" stroke="#3F8CFF" stroke-width="1.5" stroke-linecap="round" stroke-linejoin="round"/>
<path d="M6.496 3.32949V2.95849C6.496 1.73849 7.484 0.750488 8.704 0.750488H11.286C12.505 0.750488 13.494 1.73849 13.494 2.95849L13.495 3.32949" stroke="#3F8CFF" stroke-width="1.5" stroke-linecap="round" stroke-linejoin="round"/>
<path fill-rule="evenodd" clip-rule="evenodd" d="M0.749908 6.38912V9.85612C2.66791 11.1211 4.96591 12.0071 7.48791 12.3581C7.48791 12.3581 8.69925 12.6251 9.90625 12.6251C11.0942 12.6251 12.4729 12.3681 12.4729 12.3681C15.0049 12.0171 17.3119 11.1311 19.2399 9.85612V6.38912C19.2399 4.69512 17.8769 3.33112 16.1829 3.33112H3.81691C2.12291 3.33112 0.749908 4.69512 0.749908 6.38912Z" fill="#3F8CFF" stroke="#3F8CFF" stroke-width="1.5" stroke-linecap="round" stroke-linejoin="round"/>
</svg>
