<svg width="18" height="17" viewBox="0 0 18 17" fill="none" xmlns="http://www.w3.org/2000/svg">
<path fill-rule="evenodd" clip-rule="evenodd" d="M2.55556 1.83333C2.49662 1.83333 2.4401 1.85675 2.39842 1.89842C2.35675 1.9401 2.33333 1.99662 2.33333 2.05556V5.16667C2.33333 5.34348 2.2631 5.51305 2.13807 5.63807C2.01305 5.7631 1.84348 5.83333 1.66667 5.83333C1.48986 5.83333 1.32029 5.7631 1.19526 5.63807C1.07024 5.51305 1 5.34348 1 5.16667V2.05556C1 1.19689 1.69689 0.5 2.55556 0.5H5.66667C5.84348 0.5 6.01305 0.570238 6.13807 0.695262C6.2631 0.820286 6.33333 0.989856 6.33333 1.16667C6.33333 1.34348 6.2631 1.51305 6.13807 1.63807C6.01305 1.7631 5.84348 1.83333 5.66667 1.83333H2.55556ZM11.6667 1.16667C11.6667 0.989856 11.7369 0.820286 11.8619 0.695262C11.987 0.570238 12.1565 0.5 12.3333 0.5H15.4444C16.3031 0.5 17 1.19689 17 2.05556V5.16667C17 5.34348 16.9298 5.51305 16.8047 5.63807C16.6797 5.7631 16.5101 5.83333 16.3333 5.83333C16.1565 5.83333 15.987 5.7631 15.8619 5.63807C15.7369 5.51305 15.6667 5.34348 15.6667 5.16667V2.05556C15.6667 1.99662 15.6433 1.9401 15.6016 1.89842C15.5599 1.85675 15.5034 1.83333 15.4444 1.83333H12.3333C12.1565 1.83333 11.987 1.7631 11.8619 1.63807C11.7369 1.51305 11.6667 1.34348 11.6667 1.16667ZM1.66667 11.1667C1.84348 11.1667 2.01305 11.2369 2.13807 11.3619C2.2631 11.487 2.33333 11.6565 2.33333 11.8333V14.9444C2.33333 15.0671 2.43289 15.1667 2.55556 15.1667H5.66667C5.84348 15.1667 6.01305 15.2369 6.13807 15.3619C6.2631 15.487 6.33333 15.6565 6.33333 15.8333C6.33333 16.0101 6.2631 16.1797 6.13807 16.3047C6.01305 16.4298 5.84348 16.5 5.66667 16.5H2.55556C2.143 16.5 1.74734 16.3361 1.45561 16.0444C1.16389 15.7527 1 15.357 1 14.9444V11.8333C1 11.6565 1.07024 11.487 1.19526 11.3619C1.32029 11.2369 1.48986 11.1667 1.66667 11.1667ZM16.3333 11.1667C16.5101 11.1667 16.6797 11.2369 16.8047 11.3619C16.9298 11.487 17 11.6565 17 11.8333V14.9444C17 15.357 16.8361 15.7527 16.5444 16.0444C16.2527 16.3361 15.857 16.5 15.4444 16.5H12.3333C12.1565 16.5 11.987 16.4298 11.8619 16.3047C11.7369 16.1797 11.6667 16.0101 11.6667 15.8333C11.6667 15.6565 11.7369 15.487 11.8619 15.3619C11.987 15.2369 12.1565 15.1667 12.3333 15.1667H15.4444C15.5034 15.1667 15.5599 15.1433 15.6016 15.1016C15.6433 15.0599 15.6667 15.0034 15.6667 14.9444V11.8333C15.6667 11.6565 15.7369 11.487 15.8619 11.3619C15.987 11.2369 16.1565 11.1667 16.3333 11.1667Z" fill="#8D90B9" stroke="#8D90B9" stroke-width="0.5"/>
</svg>
